<svg width="256" height="256" viewBox="0 0 256 256" fill="none" xmlns="http://www.w3.org/2000/svg">
<path d="M59 185.616C61.5656 184.336 63.6502 182.895 65.2537 181.295C66.8572 179.694 68.0331 177.827 68.7814 175.693C69.5297 173.666 69.9039 171.159 69.9039 168.171V132.161H97.1637V170.732C97.1637 177.667 96.0946 183.322 93.9566 187.696C91.9255 192.071 89.1461 195.272 85.6183 197.299C82.1975 199.433 78.4025 200.5 74.2334 200.5C69.6366 200.5 65.9486 199.06 63.1691 196.179C60.4966 193.405 59.1069 189.884 59 185.616ZM67.8193 69.904C67.8193 65.8495 69.209 62.4352 71.9885 59.6611C74.7679 56.887 78.3491 55.5 82.732 55.5C87.115 55.5 90.6961 56.887 93.4756 59.6611C96.255 62.4352 97.6447 65.8495 97.6447 69.904C97.6447 73.8517 96.255 77.266 93.4756 80.1468C90.6961 82.9209 87.115 84.3079 82.732 84.3079C78.3491 84.3079 74.7679 82.9209 71.9885 80.1468C69.209 77.266 67.8193 73.8517 67.8193 69.904ZM97.1637 141.284H69.9039V92.6302C71.0798 92.3102 72.7368 91.9901 74.8748 91.67C77.1197 91.3499 79.525 91.1898 82.0906 91.1898C87.4357 91.1898 91.2841 92.0968 93.6359 93.9106C95.9877 95.6177 97.1637 98.9787 97.1637 103.993V141.284Z" fill="#FF988A"/>
<path d="M156.752 171.692C152.903 171.692 149.483 171.265 146.489 170.412C143.603 169.558 140.877 168.545 138.311 167.371V144.645C140.129 146.032 142.213 147.312 144.565 148.486C146.917 149.659 149.589 150.246 152.583 150.246C157.928 150.246 161.99 148.539 164.769 145.125C167.656 141.604 169.099 136.536 169.099 129.921C169.099 125.333 168.511 121.652 167.335 118.877C166.159 115.997 164.395 113.863 162.043 112.476C159.798 111.089 156.966 110.395 153.545 110.395C151.514 110.395 149.643 110.662 147.932 111.195C146.222 111.622 144.779 112.156 143.603 112.796V160.489H116.504V108.475C116.504 105.594 117.092 103.193 118.267 101.273C119.55 99.3521 121.261 97.6983 123.399 96.3113C126.713 94.1773 130.989 92.4702 136.227 91.1898C141.465 89.8028 147.238 89.1093 153.545 89.1093C162.204 89.1093 169.794 90.5497 176.315 93.4305C182.836 96.2046 187.913 100.632 191.548 106.714C195.183 112.689 197 120.425 197 129.921C197 138.99 195.236 146.618 191.708 152.807C188.181 158.995 183.37 163.69 177.277 166.891C171.29 170.092 164.449 171.692 156.752 171.692ZM143.763 153.927V197.779C142.587 198.099 140.877 198.419 138.632 198.74C136.494 199.06 134.142 199.22 131.577 199.22C126.338 199.22 122.49 198.313 120.031 196.499C117.679 194.685 116.504 191.324 116.504 186.416V153.927H143.763Z" fill="#FF988A"/>
</svg>
